<?xml version="1.0" standalone="no"?>
<!DOCTYPE svg PUBLIC "-//W3C//DTD SVG 20010904//EN"
 "http://www.w3.org/TR/2001/REC-SVG-20010904/DTD/svg10.dtd">
<svg version="1.0" xmlns="http://www.w3.org/2000/svg"
 width="840.000000pt" height="532.000000pt" viewBox="0 0 840.000000 532.000000"
 preserveAspectRatio="xMidYMid meet">

<g transform="translate(0.000000,532.000000) scale(0.100000,-0.100000)"
fill="#000000" stroke="none">
<path d="M2806 4889 c-505 -70 -933 -422 -1096 -903 -52 -155 -64 -235 -64
-421 0 -181 12 -265 60 -413 148 -453 554 -811 1016 -896 45 -8 100 -18 121
-21 l37 -6 0 -354 0 -355 -338 0 -339 0 -24 -26 c-20 -22 -24 -36 -24 -89 0
-53 4 -67 24 -89 l24 -26 339 0 338 0 0 -385 0 -385 28 -31 c21 -23 39 -32 73
-36 46 -5 98 13 116 39 4 7 10 189 13 403 l5 390 333 5 c317 5 334 6 348 25
37 50 37 130 0 180 -14 19 -32 20 -348 25 l-333 5 -3 352 -2 353 22 4 c13 2
64 12 113 21 270 49 513 182 714 391 195 201 312 433 356 703 25 151 17 388
-19 531 -58 230 -170 432 -335 604 -192 199 -419 326 -696 387 -105 23 -352
33 -459 18z m449 -293 c322 -83 605 -328 725 -629 63 -158 73 -216 74 -402 0
-152 -3 -180 -26 -267 -102 -379 -391 -662 -785 -770 -66 -18 -105 -21 -253
-22 -159 0 -184 2 -275 27 -355 96 -638 362 -748 702 -42 130 -51 192 -50 335
1 153 15 234 67 370 84 225 267 436 483 556 84 48 228 98 333 118 125 23 325
15 455 -18z"/>
<path d="M5335 4865 c-17 -8 -198 -183 -403 -388 l-372 -373 0 -44 c1 -25 6
-55 14 -68 29 -52 107 -77 159 -51 12 6 133 122 270 257 l247 247 0 -655 0
-655 -101 -18 c-576 -98 -1027 -548 -1125 -1122 -24 -145 -15 -403 19 -540
133 -526 533 -905 1078 -1022 118 -25 400 -25 519 1 331 71 598 229 799 471
136 165 219 327 273 535 27 101 31 137 35 290 4 133 1 197 -11 267 -100 577
-555 1027 -1131 1121 l-105 17 0 670 0 670 263 -262 c144 -143 272 -266 284
-272 84 -42 183 33 170 129 -5 41 -23 61 -354 392 -191 192 -365 363 -386 380
-45 36 -100 45 -142 23z m201 -1986 c704 -98 1144 -820 903 -1482 -122 -335
-397 -594 -735 -692 -135 -39 -214 -48 -374 -42 -155 6 -262 28 -392 83 -337
140 -599 464 -662 815 -34 190 -29 326 19 507 81 305 309 577 598 712 200 94
429 129 643 99z"/>
</g>
</svg>
